<svg xmlns="http://www.w3.org/2000/svg" xmlns:xlink="http://www.w3.org/1999/xlink" role="img" viewBox="210.57 0 51.2 51.21"><mask id="mask0_958_15881" style="mask-type:alpha" width="344" height="127" x="0" y="0" maskUnits="userSpaceOnUse"><path fill="#fff" fill-rule="evenodd" d="M234.123 41.2204C235.489 44.3354 236.172 47.6638 236.172 51.2055C236.172 47.6638 236.833 44.3354 238.156 41.2204C239.521 38.1054 241.356 35.3958 243.66 33.0916C245.965 30.7873 248.674 28.9738 251.789 27.651C254.904 26.2855 258.233 25.6028 261.774 25.6028C258.233 25.6028 254.904 24.9414 251.789 23.6185C248.674 22.2531 245.965 20.4182 243.66 18.114C241.356 15.8097 239.521 13.1001 238.156 9.98507C236.833 6.87007 236.172 3.54171 236.172 0C236.172 3.54171 235.489 6.87007 234.123 9.98507C232.801 13.1001 230.987 15.8097 228.683 18.114C226.379 20.4182 223.669 22.2531 220.554 23.6185C217.439 24.9414 214.111 25.6028 210.569 25.6028C214.111 25.6028 217.439 26.2855 220.554 27.651C223.669 28.9738 226.379 30.7873 228.683 33.0916C230.987 35.3958 232.801 38.1054 234.123 41.2204Z" clip-rule="evenodd"/></mask><g mask="url(#mask0_958_15881)"><rect width="832.09" height="685.324" x="-158.25" y="-455.443" fill="url(#paint0_linear_958_15881)"/></g><defs><linearGradient id="paint0_linear_958_15881" x1="-57.405" x2="354.97" y1="130.441" y2="30.369" gradientUnits="userSpaceOnUse"><stop stop-color="#439DDF"/><stop offset=".524" stop-color="#4F87ED"/><stop offset=".781" stop-color="#9476C5"/><stop offset=".888" stop-color="#BC688E"/><stop offset="1" stop-color="#D6645D"/></linearGradient></defs></svg>